<mxfile host="Electron" agent="Mozilla/5.0 (Windows NT 10.0; Win64; x64) AppleWebKit/537.36 (KHTML, like Gecko) draw.io/26.2.2 Chrome/134.0.6998.178 Electron/35.1.2 Safari/537.36" version="26.2.2">
  <diagram name="StrÃ¡nka-1" id="5HcygzJb59KKx-ZBx64x">
    <mxGraphModel dx="740" dy="435" grid="1" gridSize="10" guides="1" tooltips="1" connect="1" arrows="1" fold="1" page="1" pageScale="1" pageWidth="827" pageHeight="1169" math="0" shadow="0">
      <root>
        <mxCell id="0" />
        <mxCell id="1" parent="0" />
        <mxCell id="wK_hxF7dVCZJvAFQEwej-1" value="" style="rounded=0;whiteSpace=wrap;html=1;" vertex="1" parent="1">
          <mxGeometry x="184" y="140" width="460" height="360" as="geometry" />
        </mxCell>
        <mxCell id="wK_hxF7dVCZJvAFQEwej-2" value="sensor_driver.vhd" style="text;html=1;align=center;verticalAlign=middle;whiteSpace=wrap;rounded=0;" vertex="1" parent="1">
          <mxGeometry x="384" y="140" width="60" height="30" as="geometry" />
        </mxCell>
        <mxCell id="wK_hxF7dVCZJvAFQEwej-3" value="clk" style="text;html=1;align=left;verticalAlign=middle;whiteSpace=wrap;rounded=0;" vertex="1" parent="1">
          <mxGeometry x="194" y="170" width="60" height="30" as="geometry" />
        </mxCell>
        <mxCell id="wK_hxF7dVCZJvAFQEwej-4" value="rst" style="text;html=1;align=left;verticalAlign=middle;whiteSpace=wrap;rounded=0;" vertex="1" parent="1">
          <mxGeometry x="184" y="190" width="60" height="30" as="geometry" />
        </mxCell>
        <mxCell id="wK_hxF7dVCZJvAFQEwej-5" value="echo" style="text;html=1;align=left;verticalAlign=middle;whiteSpace=wrap;rounded=0;" vertex="1" parent="1">
          <mxGeometry x="184" y="210" width="60" height="30" as="geometry" />
        </mxCell>
        <mxCell id="wK_hxF7dVCZJvAFQEwej-7" value="" style="triangle;whiteSpace=wrap;html=1;fontFamily=Helvetica;fontSize=11;fontColor=default;labelBackgroundColor=default;" vertex="1" parent="1">
          <mxGeometry x="184" y="177.82999999999998" width="10" height="14.34" as="geometry" />
        </mxCell>
        <mxCell id="wK_hxF7dVCZJvAFQEwej-8" value="trig" style="text;html=1;align=right;verticalAlign=middle;whiteSpace=wrap;rounded=0;" vertex="1" parent="1">
          <mxGeometry x="620" y="192.17" width="24" height="30" as="geometry" />
        </mxCell>
        <mxCell id="wK_hxF7dVCZJvAFQEwej-9" value="sens_out (11:0)" style="text;html=1;align=right;verticalAlign=middle;whiteSpace=wrap;rounded=0;" vertex="1" parent="1">
          <mxGeometry x="554" y="172" width="90" height="30" as="geometry" />
        </mxCell>
        <mxCell id="wK_hxF7dVCZJvAFQEwej-35" value="" style="group;movable=1;resizable=1;rotatable=1;deletable=1;editable=1;locked=0;connectable=1;" vertex="1" connectable="0" parent="1">
          <mxGeometry x="230" y="280" width="140" height="100" as="geometry" />
        </mxCell>
        <mxCell id="wK_hxF7dVCZJvAFQEwej-10" value="" style="rounded=0;whiteSpace=wrap;html=1;container=0;movable=1;resizable=1;rotatable=1;deletable=1;editable=1;locked=0;connectable=1;" vertex="1" parent="wK_hxF7dVCZJvAFQEwej-35">
          <mxGeometry width="140" height="100" as="geometry" />
        </mxCell>
        <mxCell id="wK_hxF7dVCZJvAFQEwej-11" value="clock_enable.vhd" style="text;html=1;align=center;verticalAlign=middle;whiteSpace=wrap;rounded=0;container=0;movable=1;resizable=1;rotatable=1;deletable=1;editable=1;locked=0;connectable=1;" vertex="1" parent="wK_hxF7dVCZJvAFQEwej-35">
          <mxGeometry x="30" width="60" height="30" as="geometry" />
        </mxCell>
        <mxCell id="wK_hxF7dVCZJvAFQEwej-12" value="N_PERIODS" style="text;html=1;align=center;verticalAlign=middle;whiteSpace=wrap;rounded=0;container=0;movable=1;resizable=1;rotatable=1;deletable=1;editable=1;locked=0;connectable=1;" vertex="1" parent="wK_hxF7dVCZJvAFQEwej-35">
          <mxGeometry x="19" y="13.170000000000016" width="60" height="30" as="geometry" />
        </mxCell>
        <mxCell id="wK_hxF7dVCZJvAFQEwej-18" value="clk" style="text;html=1;align=left;verticalAlign=middle;whiteSpace=wrap;rounded=0;container=0;movable=1;resizable=1;rotatable=1;deletable=1;editable=1;locked=0;connectable=1;" vertex="1" parent="wK_hxF7dVCZJvAFQEwej-35">
          <mxGeometry x="10" y="30.00000000000003" width="60" height="30" as="geometry" />
        </mxCell>
        <mxCell id="wK_hxF7dVCZJvAFQEwej-19" value="" style="triangle;whiteSpace=wrap;html=1;fontFamily=Helvetica;fontSize=11;fontColor=default;labelBackgroundColor=default;container=0;movable=1;resizable=1;rotatable=1;deletable=1;editable=1;locked=0;connectable=1;" vertex="1" parent="wK_hxF7dVCZJvAFQEwej-35">
          <mxGeometry y="37.83000000000001" width="10" height="14.34" as="geometry" />
        </mxCell>
        <mxCell id="wK_hxF7dVCZJvAFQEwej-20" value="rst" style="text;html=1;align=left;verticalAlign=middle;whiteSpace=wrap;rounded=0;container=0;movable=1;resizable=1;rotatable=1;deletable=1;editable=1;locked=0;connectable=1;" vertex="1" parent="wK_hxF7dVCZJvAFQEwej-35">
          <mxGeometry y="52.170000000000016" width="60" height="30" as="geometry" />
        </mxCell>
        <mxCell id="wK_hxF7dVCZJvAFQEwej-21" value="pulse" style="text;html=1;align=right;verticalAlign=middle;whiteSpace=wrap;rounded=0;container=0;movable=1;resizable=1;rotatable=1;deletable=1;editable=1;locked=0;connectable=1;" vertex="1" parent="wK_hxF7dVCZJvAFQEwej-35">
          <mxGeometry x="79" y="30" width="60" height="30" as="geometry" />
        </mxCell>
        <mxCell id="wK_hxF7dVCZJvAFQEwej-36" value="" style="group;movable=1;resizable=1;rotatable=1;deletable=1;editable=1;locked=0;connectable=1;" vertex="1" connectable="0" parent="1">
          <mxGeometry x="450" y="280" width="141" height="100" as="geometry" />
        </mxCell>
        <mxCell id="wK_hxF7dVCZJvAFQEwej-22" value="" style="rounded=0;whiteSpace=wrap;html=1;movable=1;resizable=1;rotatable=1;deletable=1;editable=1;locked=0;connectable=1;" vertex="1" parent="wK_hxF7dVCZJvAFQEwej-36">
          <mxGeometry y="0.17000000000001592" width="140" height="99.83" as="geometry" />
        </mxCell>
        <mxCell id="wK_hxF7dVCZJvAFQEwej-23" value="trig_generator.vhd" style="text;html=1;align=center;verticalAlign=middle;whiteSpace=wrap;rounded=0;movable=1;resizable=1;rotatable=1;deletable=1;editable=1;locked=0;connectable=1;" vertex="1" parent="wK_hxF7dVCZJvAFQEwej-36">
          <mxGeometry x="44.5" width="51" height="29.949086552860134" as="geometry" />
        </mxCell>
        <mxCell id="wK_hxF7dVCZJvAFQEwej-27" value="clk" style="text;html=1;align=left;verticalAlign=middle;whiteSpace=wrap;rounded=0;movable=1;resizable=1;rotatable=1;deletable=1;editable=1;locked=0;connectable=1;" vertex="1" parent="wK_hxF7dVCZJvAFQEwej-36">
          <mxGeometry x="8.5" y="22.132374962563688" width="51" height="29.949086552860134" as="geometry" />
        </mxCell>
        <mxCell id="wK_hxF7dVCZJvAFQEwej-28" value="" style="triangle;whiteSpace=wrap;html=1;fontFamily=Helvetica;fontSize=11;fontColor=default;labelBackgroundColor=default;movable=1;resizable=1;rotatable=1;deletable=1;editable=1;locked=0;connectable=1;" vertex="1" parent="wK_hxF7dVCZJvAFQEwej-36">
          <mxGeometry y="29.949086552860194" width="8.5" height="14.315663372267144" as="geometry" />
        </mxCell>
        <mxCell id="wK_hxF7dVCZJvAFQEwej-29" value="bgn" style="text;html=1;align=left;verticalAlign=middle;whiteSpace=wrap;rounded=0;movable=1;resizable=1;rotatable=1;deletable=1;editable=1;locked=0;connectable=1;" vertex="1" parent="wK_hxF7dVCZJvAFQEwej-36">
          <mxGeometry y="44.26474992512732" width="51" height="29.949086552860134" as="geometry" />
        </mxCell>
        <mxCell id="wK_hxF7dVCZJvAFQEwej-30" value="rst" style="text;html=1;align=left;verticalAlign=middle;whiteSpace=wrap;rounded=0;movable=1;resizable=1;rotatable=1;deletable=1;editable=1;locked=0;connectable=1;" vertex="1" parent="wK_hxF7dVCZJvAFQEwej-36">
          <mxGeometry y="60.0678845961865" width="51" height="29.949086552860134" as="geometry" />
        </mxCell>
        <mxCell id="wK_hxF7dVCZJvAFQEwej-31" value="trig_gen" style="text;html=1;align=right;verticalAlign=middle;whiteSpace=wrap;rounded=0;movable=1;resizable=1;rotatable=1;deletable=1;editable=1;locked=0;connectable=1;" vertex="1" parent="wK_hxF7dVCZJvAFQEwej-36">
          <mxGeometry x="90" y="22.132374962563688" width="51" height="29.949086552860134" as="geometry" />
        </mxCell>
      </root>
    </mxGraphModel>
  </diagram>
</mxfile>
